<svg width="991" height="591" viewBox="0 0 991 591" fill="none" xmlns="http://www.w3.org/2000/svg">
<g opacity="0.3" clip-path="url(#clip0_306_1428)">
<path fill-rule="evenodd" clip-rule="evenodd" d="M840.914 474.929L836.56 313.689L571.632 390.236C547.76 395.479 524.211 397.979 501.145 398.06C476.387 398.141 452.031 395.479 428.079 390.236L175.006 312.882V476.381C182.264 561.317 425.901 587.29 500.662 590.839C560.583 593.742 797.284 562.446 828.414 513.646C835.108 502.999 839.302 490.094 840.914 474.929ZM948.257 197.618V394.672H954.467C958.741 394.672 962.209 398.141 962.209 402.416V455.41C962.209 459.604 958.741 463.153 954.467 463.153H948.257V481.705C956.16 483.157 962.209 490.174 962.209 498.482C962.209 507.839 954.467 515.582 945.112 515.582H914.546C905.191 515.582 897.449 507.92 897.449 498.482C897.449 490.174 903.497 483.157 911.401 481.705V463.153H905.191C900.997 463.153 897.449 459.685 897.449 455.41V402.416C897.449 398.141 900.916 394.672 905.191 394.672H911.401V209.153L588.971 309.333C530.582 323.207 472.193 324.175 413.804 309.333L57.9052 203.103L25.7267 193.505C-14.3552 177.131 -4.35491 138.655 32.985 129.783L435.498 9.59855C477.032 -2.25856 518.485 -4.11375 560.018 9.59855L955.273 128.331C998.258 138.817 1006.73 178.582 956.725 194.957L948.257 197.618Z" fill="white"/>
</g>
<defs>
<clipPath id="clip0_306_1428">
<rect width="991" height="591" fill="white"/>
</clipPath>
</defs>
</svg>
