<svg width="142" height="88" viewBox="0 0 142 88" fill="none" xmlns="http://www.w3.org/2000/svg">
<g filter="url(#filter0_d_657_3029)">
<path fill-rule="evenodd" clip-rule="evenodd" d="M83.5404 17.6401L83.385 11.8762L73.9343 14.6125C73.0828 14.7999 72.2427 14.8893 71.4199 14.8922C70.5367 14.8951 69.6679 14.7999 68.8134 14.6125L59.7856 11.8474V17.692C60.0446 20.7282 68.7358 21.6566 71.4027 21.7835C73.5402 21.8873 81.984 20.7686 83.0945 19.0241C83.3333 18.6435 83.4829 18.1822 83.5404 17.6401ZM87.3696 7.72699V14.7711H87.5911C87.7436 14.7711 87.8673 14.8951 87.8673 15.0479V16.9423C87.8673 17.0922 87.7436 17.2191 87.5911 17.2191H87.3696V17.8823C87.6515 17.9342 87.8673 18.185 87.8673 18.482C87.8673 18.8165 87.5911 19.0933 87.2574 19.0933H86.167C85.8333 19.0933 85.5571 18.8194 85.5571 18.482C85.5571 18.185 85.7729 17.9342 86.0548 17.8823V17.2191H85.8333C85.6837 17.2191 85.5571 17.0951 85.5571 16.9423V15.0479C85.5571 14.8951 85.6808 14.7711 85.8333 14.7711H86.0548V8.13932L74.5529 11.7205C72.47 12.2164 70.3871 12.251 68.3042 11.7205L55.6084 7.92306L54.4605 7.57994C53.0306 6.99461 53.3874 5.61923 54.7194 5.30206L69.0781 1.00581C70.5597 0.581952 72.0385 0.515634 73.5201 1.00581L87.6199 5.25016C89.1533 5.625 89.4553 7.04651 87.6717 7.63184L87.3696 7.72699Z" fill="#FFD390"/>
</g>
<g filter="url(#filter1_d_657_3029)">
<path d="M43.0576 48.0156C43.0576 47.1855 42.9274 46.4531 42.667 45.8184C42.4229 45.1673 41.9834 44.5814 41.3486 44.0605C40.7301 43.5397 39.8675 43.0433 38.7607 42.5713C37.6702 42.0993 36.2868 41.6191 34.6104 41.1309C32.8525 40.61 31.2656 40.0322 29.8496 39.3975C28.4336 38.7464 27.221 38.0059 26.2119 37.1758C25.2028 36.3457 24.4297 35.3936 23.8926 34.3193C23.3555 33.2451 23.0869 32.0163 23.0869 30.6328C23.0869 29.2493 23.3717 27.9717 23.9414 26.7998C24.5111 25.6279 25.3249 24.6107 26.3828 23.748C27.457 22.8691 28.7347 22.1855 30.2158 21.6973C31.6969 21.209 33.349 20.9648 35.1719 20.9648C37.8411 20.9648 40.1035 21.4775 41.959 22.5029C43.8307 23.512 45.2549 24.8385 46.2314 26.4824C47.208 28.11 47.6963 29.8516 47.6963 31.707H43.0088C43.0088 30.3724 42.724 29.1924 42.1543 28.167C41.5846 27.1253 40.722 26.3115 39.5664 25.7256C38.4108 25.1234 36.946 24.8223 35.1719 24.8223C33.4954 24.8223 32.112 25.0745 31.0215 25.5791C29.931 26.0837 29.1172 26.7673 28.5801 27.6299C28.0592 28.4925 27.7988 29.4772 27.7988 30.584C27.7988 31.3327 27.9535 32.0163 28.2627 32.6348C28.5882 33.237 29.0846 33.7985 29.752 34.3193C30.4355 34.8402 31.2982 35.3203 32.3398 35.7598C33.3978 36.1992 34.6592 36.6224 36.124 37.0293C38.1423 37.599 39.8838 38.2337 41.3486 38.9336C42.8135 39.6335 44.0179 40.4229 44.9619 41.3018C45.9222 42.1644 46.6302 43.1491 47.0859 44.2559C47.5579 45.3464 47.7939 46.5833 47.7939 47.9668C47.7939 49.4154 47.501 50.7256 46.915 51.8975C46.3291 53.0693 45.4909 54.0703 44.4004 54.9004C43.3099 55.7305 41.9997 56.3734 40.4697 56.8291C38.9561 57.2686 37.2633 57.4883 35.3916 57.4883C33.7477 57.4883 32.1283 57.2604 30.5332 56.8047C28.9544 56.349 27.514 55.6654 26.2119 54.7539C24.9261 53.8424 23.8926 52.7194 23.1113 51.3848C22.3464 50.0339 21.9639 48.4714 21.9639 46.6973H26.6514C26.6514 47.918 26.8874 48.9678 27.3594 49.8467C27.8314 50.7093 28.4743 51.4255 29.2881 51.9951C30.1182 52.5648 31.054 52.988 32.0957 53.2646C33.1536 53.5251 34.2523 53.6553 35.3916 53.6553C37.0355 53.6553 38.4271 53.4274 39.5664 52.9717C40.7057 52.516 41.5684 51.8649 42.1543 51.0186C42.7565 50.1722 43.0576 49.1712 43.0576 48.0156ZM55.2891 21.4531H59.8545L71.5 50.4326L83.1211 21.4531H87.7109L73.2578 57H69.6934L55.2891 21.4531ZM53.7998 21.4531H57.8281L58.4873 43.1328V57H53.7998V21.4531ZM85.1475 21.4531H89.1758V57H84.4883V43.1328L85.1475 21.4531ZM116.397 48.0156C116.397 47.1855 116.267 46.4531 116.007 45.8184C115.763 45.1673 115.323 44.5814 114.688 44.0605C114.07 43.5397 113.207 43.0433 112.101 42.5713C111.01 42.0993 109.627 41.6191 107.95 41.1309C106.192 40.61 104.605 40.0322 103.189 39.3975C101.773 38.7464 100.561 38.0059 99.5518 37.1758C98.5426 36.3457 97.7695 35.3936 97.2324 34.3193C96.6953 33.2451 96.4268 32.0163 96.4268 30.6328C96.4268 29.2493 96.7116 27.9717 97.2812 26.7998C97.8509 25.6279 98.6647 24.6107 99.7227 23.748C100.797 22.8691 102.075 22.1855 103.556 21.6973C105.037 21.209 106.689 20.9648 108.512 20.9648C111.181 20.9648 113.443 21.4775 115.299 22.5029C117.171 23.512 118.595 24.8385 119.571 26.4824C120.548 28.11 121.036 29.8516 121.036 31.707H116.349C116.349 30.3724 116.064 29.1924 115.494 28.167C114.924 27.1253 114.062 26.3115 112.906 25.7256C111.751 25.1234 110.286 24.8223 108.512 24.8223C106.835 24.8223 105.452 25.0745 104.361 25.5791C103.271 26.0837 102.457 26.7673 101.92 27.6299C101.399 28.4925 101.139 29.4772 101.139 30.584C101.139 31.3327 101.293 32.0163 101.603 32.6348C101.928 33.237 102.424 33.7985 103.092 34.3193C103.775 34.8402 104.638 35.3203 105.68 35.7598C106.738 36.1992 107.999 36.6224 109.464 37.0293C111.482 37.599 113.224 38.2337 114.688 38.9336C116.153 39.6335 117.358 40.4229 118.302 41.3018C119.262 42.1644 119.97 43.1491 120.426 44.2559C120.898 45.3464 121.134 46.5833 121.134 47.9668C121.134 49.4154 120.841 50.7256 120.255 51.8975C119.669 53.0693 118.831 54.0703 117.74 54.9004C116.65 55.7305 115.34 56.3734 113.81 56.8291C112.296 57.2686 110.603 57.4883 108.731 57.4883C107.088 57.4883 105.468 57.2604 103.873 56.8047C102.294 56.349 100.854 55.6654 99.5518 54.7539C98.266 53.8424 97.2324 52.7194 96.4512 51.3848C95.6862 50.0339 95.3037 48.4714 95.3037 46.6973H99.9912C99.9912 47.918 100.227 48.9678 100.699 49.8467C101.171 50.7093 101.814 51.4255 102.628 51.9951C103.458 52.5648 104.394 52.988 105.436 53.2646C106.493 53.5251 107.592 53.6553 108.731 53.6553C110.375 53.6553 111.767 53.4274 112.906 52.9717C114.046 52.516 114.908 51.8649 115.494 51.0186C116.096 50.1722 116.397 49.1712 116.397 48.0156Z" fill="#324F9A"/>
</g>
<line y1="-1" x2="135" y2="-1" transform="matrix(0.999999 0.00125314 -0.00124453 0.999999 4 61.5596)" stroke="#FFD390" stroke-width="2"/>
<g filter="url(#filter2_d_657_3029)">
<path d="M8.94141 75.7627C8.94141 75.5967 8.91536 75.4502 8.86328 75.3232C8.81445 75.193 8.72656 75.0758 8.59961 74.9717C8.47591 74.8675 8.30339 74.7682 8.08203 74.6738C7.86393 74.5794 7.58724 74.4834 7.25195 74.3857C6.90039 74.2816 6.58301 74.166 6.2998 74.0391C6.0166 73.9089 5.77409 73.7607 5.57227 73.5947C5.37044 73.4287 5.21582 73.2383 5.1084 73.0234C5.00098 72.8086 4.94727 72.5628 4.94727 72.2861C4.94727 72.0094 5.00423 71.7539 5.11816 71.5195C5.2321 71.2852 5.39486 71.0817 5.60645 70.9092C5.82129 70.7334 6.07682 70.5967 6.37305 70.499C6.66927 70.4014 6.99967 70.3525 7.36426 70.3525C7.89811 70.3525 8.35059 70.4551 8.72168 70.6602C9.09603 70.862 9.38086 71.1273 9.57617 71.4561C9.77148 71.7816 9.86914 72.1299 9.86914 72.501H8.93164C8.93164 72.234 8.87467 71.998 8.76074 71.793C8.64681 71.5846 8.47428 71.4219 8.24316 71.3047C8.01204 71.1842 7.71908 71.124 7.36426 71.124C7.02897 71.124 6.75228 71.1745 6.53418 71.2754C6.31608 71.3763 6.15332 71.513 6.0459 71.6855C5.94173 71.8581 5.88965 72.055 5.88965 72.2764C5.88965 72.4261 5.92057 72.5628 5.98242 72.6865C6.04753 72.807 6.14681 72.9193 6.28027 73.0234C6.41699 73.1276 6.58952 73.2236 6.79785 73.3115C7.00944 73.3994 7.26172 73.484 7.55469 73.5654C7.95833 73.6794 8.30664 73.8063 8.59961 73.9463C8.89258 74.0863 9.13346 74.2441 9.32227 74.4199C9.51432 74.5924 9.65592 74.7894 9.74707 75.0107C9.84147 75.2288 9.88867 75.4762 9.88867 75.7529C9.88867 76.0426 9.83008 76.3047 9.71289 76.5391C9.5957 76.7734 9.42806 76.9736 9.20996 77.1396C8.99186 77.3057 8.72982 77.4342 8.42383 77.5254C8.12109 77.6133 7.78255 77.6572 7.4082 77.6572C7.07943 77.6572 6.75553 77.6117 6.43652 77.5205C6.12077 77.4294 5.83268 77.2926 5.57227 77.1104C5.3151 76.9281 5.1084 76.7035 4.95215 76.4365C4.79915 76.1663 4.72266 75.8538 4.72266 75.499H5.66016C5.66016 75.7432 5.70736 75.9531 5.80176 76.1289C5.89616 76.3014 6.02474 76.4447 6.1875 76.5586C6.35352 76.6725 6.54069 76.7572 6.74902 76.8125C6.96061 76.8646 7.18034 76.8906 7.4082 76.8906C7.73698 76.8906 8.0153 76.8451 8.24316 76.7539C8.47103 76.6628 8.64355 76.5326 8.76074 76.3633C8.88118 76.194 8.94141 75.9938 8.94141 75.7627ZM12.4375 77.0127L13.9072 72.2764H14.874L12.7549 78.375C12.7061 78.5052 12.641 78.6452 12.5596 78.7949C12.4814 78.9479 12.3805 79.0928 12.2568 79.2295C12.1331 79.3662 11.9834 79.4769 11.8076 79.5615C11.6351 79.6494 11.4284 79.6934 11.1875 79.6934C11.1159 79.6934 11.0247 79.6836 10.9141 79.6641C10.8034 79.6445 10.7253 79.6283 10.6797 79.6152L10.6748 78.8828C10.7008 78.8861 10.7415 78.8893 10.7969 78.8926C10.8555 78.8991 10.8962 78.9023 10.9189 78.9023C11.124 78.9023 11.2982 78.8747 11.4414 78.8193C11.5846 78.7673 11.7051 78.6777 11.8027 78.5508C11.9036 78.4271 11.9899 78.2562 12.0615 78.0381L12.4375 77.0127ZM11.3584 72.2764L12.7305 76.3779L12.9648 77.3301L12.3154 77.6621L10.3721 72.2764H11.3584ZM16.6709 70.0596V77.5596H15.7627V70.0596H16.6709ZM19.1025 70.0596V77.5596H18.1943V70.0596H19.1025ZM23.668 76.6562V73.9365C23.668 73.7282 23.6257 73.5475 23.541 73.3945C23.4596 73.2383 23.3359 73.1178 23.1699 73.0332C23.0039 72.9486 22.7988 72.9062 22.5547 72.9062C22.3268 72.9062 22.1266 72.9453 21.9541 73.0234C21.7848 73.1016 21.6514 73.2041 21.5537 73.3311C21.4593 73.458 21.4121 73.5947 21.4121 73.7412H20.5088C20.5088 73.5524 20.5576 73.3652 20.6553 73.1797C20.7529 72.9941 20.8929 72.8265 21.0752 72.6768C21.2607 72.5238 21.4821 72.4033 21.7393 72.3154C21.9997 72.2243 22.2894 72.1787 22.6084 72.1787C22.9925 72.1787 23.3311 72.2438 23.624 72.374C23.9202 72.5042 24.1514 72.7012 24.3174 72.9648C24.4867 73.2253 24.5713 73.5524 24.5713 73.9463V76.4072C24.5713 76.583 24.5859 76.7702 24.6152 76.9688C24.6478 77.1673 24.695 77.3382 24.7568 77.4814V77.5596H23.8145C23.7689 77.4554 23.7331 77.3171 23.707 77.1445C23.681 76.9688 23.668 76.806 23.668 76.6562ZM23.8242 74.3564L23.834 74.9912H22.9209C22.6637 74.9912 22.4342 75.0124 22.2324 75.0547C22.0306 75.0938 21.8613 75.154 21.7246 75.2354C21.5879 75.3167 21.4837 75.4193 21.4121 75.543C21.3405 75.6634 21.3047 75.805 21.3047 75.9678C21.3047 76.1338 21.3421 76.2852 21.417 76.4219C21.4919 76.5586 21.6042 76.6676 21.7539 76.749C21.9069 76.8271 22.0941 76.8662 22.3154 76.8662C22.5921 76.8662 22.8363 76.8076 23.0479 76.6904C23.2594 76.5732 23.4271 76.43 23.5508 76.2607C23.6777 76.0915 23.7461 75.9271 23.7559 75.7676L24.1416 76.2021C24.1188 76.3389 24.057 76.4902 23.9561 76.6562C23.8551 76.8223 23.7201 76.9818 23.5508 77.1348C23.3848 77.2845 23.1862 77.4098 22.9551 77.5107C22.7272 77.6084 22.4701 77.6572 22.1836 77.6572C21.8255 77.6572 21.5114 77.5872 21.2412 77.4473C20.9743 77.3073 20.766 77.1201 20.6162 76.8857C20.4697 76.6481 20.3965 76.3828 20.3965 76.0898C20.3965 75.8066 20.4518 75.5576 20.5625 75.3428C20.6732 75.1247 20.8327 74.944 21.041 74.8008C21.2493 74.6543 21.5 74.5436 21.793 74.4688C22.0859 74.3939 22.4131 74.3564 22.7744 74.3564H23.8242ZM25.9873 70.0596H26.8955V76.5342L26.8174 77.5596H25.9873V70.0596ZM30.4648 74.874V74.9766C30.4648 75.3607 30.4193 75.7171 30.3281 76.0459C30.237 76.3714 30.1035 76.6546 29.9277 76.8955C29.752 77.1364 29.5371 77.3236 29.2832 77.457C29.0293 77.5905 28.738 77.6572 28.4092 77.6572C28.0739 77.6572 27.7793 77.6003 27.5254 77.4863C27.2747 77.3691 27.0632 77.2015 26.8906 76.9834C26.7181 76.7653 26.5798 76.5016 26.4756 76.1924C26.3747 75.8831 26.3047 75.5348 26.2656 75.1475V74.6982C26.3047 74.3076 26.3747 73.9577 26.4756 73.6484C26.5798 73.3392 26.7181 73.0755 26.8906 72.8574C27.0632 72.6361 27.2747 72.4684 27.5254 72.3545C27.776 72.2373 28.0674 72.1787 28.3994 72.1787C28.7314 72.1787 29.026 72.2438 29.2832 72.374C29.5404 72.501 29.7552 72.6833 29.9277 72.9209C30.1035 73.1585 30.237 73.4434 30.3281 73.7754C30.4193 74.1042 30.4648 74.4704 30.4648 74.874ZM29.5566 74.9766V74.874C29.5566 74.6104 29.5322 74.363 29.4834 74.1318C29.4346 73.8975 29.3564 73.6924 29.249 73.5166C29.1416 73.3376 29 73.1976 28.8242 73.0967C28.6484 72.9925 28.432 72.9404 28.1748 72.9404C27.9469 72.9404 27.7484 72.9795 27.5791 73.0576C27.4131 73.1357 27.2715 73.2415 27.1543 73.375C27.0371 73.5052 26.9411 73.6549 26.8662 73.8242C26.7946 73.9902 26.7409 74.1628 26.7051 74.3418V75.5186C26.7572 75.7464 26.8418 75.9661 26.959 76.1777C27.0794 76.3861 27.2389 76.557 27.4375 76.6904C27.6393 76.8239 27.8883 76.8906 28.1846 76.8906C28.4287 76.8906 28.637 76.8418 28.8096 76.7441C28.9854 76.6432 29.127 76.5049 29.2344 76.3291C29.3451 76.1533 29.4264 75.9499 29.4785 75.7188C29.5306 75.4876 29.5566 75.2402 29.5566 74.9766ZM34.8398 76.3389V72.2764H35.748V77.5596H34.8838L34.8398 76.3389ZM35.0107 75.2256L35.3867 75.2158C35.3867 75.5674 35.3493 75.8929 35.2744 76.1924C35.2028 76.4886 35.0856 76.7458 34.9229 76.9639C34.7601 77.182 34.5469 77.3529 34.2832 77.4766C34.0195 77.597 33.6989 77.6572 33.3213 77.6572C33.0641 77.6572 32.8281 77.6198 32.6133 77.5449C32.4017 77.4701 32.2194 77.3545 32.0664 77.1982C31.9134 77.042 31.7946 76.8385 31.71 76.5879C31.6286 76.3372 31.5879 76.0361 31.5879 75.6846V72.2764H32.4912V75.6943C32.4912 75.932 32.5173 76.1289 32.5693 76.2852C32.6247 76.4382 32.6979 76.5602 32.7891 76.6514C32.8835 76.7393 32.9876 76.8011 33.1016 76.8369C33.2188 76.8727 33.3392 76.8906 33.4629 76.8906C33.847 76.8906 34.1514 76.8174 34.376 76.6709C34.6006 76.5212 34.7617 76.321 34.8594 76.0703C34.9603 75.8164 35.0107 75.5348 35.0107 75.2256ZM40.2012 76.1582C40.2012 76.028 40.1719 75.9076 40.1133 75.7969C40.0579 75.6829 39.9424 75.5804 39.7666 75.4893C39.5941 75.3949 39.3337 75.3135 38.9854 75.2451C38.6924 75.1833 38.4271 75.11 38.1895 75.0254C37.9551 74.9408 37.7549 74.8382 37.5889 74.7178C37.4261 74.5973 37.3008 74.4557 37.2129 74.293C37.125 74.1302 37.0811 73.9398 37.0811 73.7217C37.0811 73.5133 37.1266 73.3164 37.2178 73.1309C37.3122 72.9453 37.444 72.7809 37.6133 72.6377C37.7858 72.4945 37.9925 72.3822 38.2334 72.3008C38.4743 72.2194 38.7428 72.1787 39.0391 72.1787C39.4622 72.1787 39.8236 72.2536 40.123 72.4033C40.4225 72.5531 40.652 72.7533 40.8115 73.0039C40.971 73.2513 41.0508 73.5264 41.0508 73.8291H40.1475C40.1475 73.6826 40.1035 73.541 40.0156 73.4043C39.931 73.2643 39.8057 73.1488 39.6396 73.0576C39.4769 72.9665 39.2767 72.9209 39.0391 72.9209C38.7884 72.9209 38.585 72.96 38.4287 73.0381C38.2757 73.113 38.1634 73.209 38.0918 73.3262C38.0234 73.4434 37.9893 73.5671 37.9893 73.6973C37.9893 73.7949 38.0055 73.8828 38.0381 73.9609C38.0739 74.0358 38.1357 74.1058 38.2236 74.1709C38.3115 74.2327 38.4352 74.2913 38.5947 74.3467C38.7542 74.402 38.9577 74.4574 39.2051 74.5127C39.638 74.6104 39.9945 74.7275 40.2744 74.8643C40.5544 75.001 40.7627 75.1686 40.8994 75.3672C41.0361 75.5658 41.1045 75.8066 41.1045 76.0898C41.1045 76.321 41.0557 76.5326 40.958 76.7246C40.8636 76.9167 40.7253 77.0827 40.543 77.2227C40.3639 77.3594 40.1491 77.4668 39.8984 77.5449C39.651 77.6198 39.3727 77.6572 39.0635 77.6572C38.598 77.6572 38.2041 77.5742 37.8818 77.4082C37.5596 77.2422 37.3154 77.0273 37.1494 76.7637C36.9834 76.5 36.9004 76.2217 36.9004 75.9287H37.8086C37.8216 76.1761 37.8932 76.373 38.0234 76.5195C38.1536 76.6628 38.3132 76.7653 38.502 76.8271C38.6908 76.8857 38.8779 76.915 39.0635 76.915C39.3109 76.915 39.5176 76.8825 39.6836 76.8174C39.8529 76.7523 39.9814 76.6628 40.0693 76.5488C40.1572 76.4349 40.2012 76.3047 40.2012 76.1582ZM45.2061 70.4502H46.1191L48.4482 76.2461L50.7725 70.4502H51.6904L48.7998 77.5596H48.0869L45.2061 70.4502ZM44.9082 70.4502H45.7139L45.8457 74.7861V77.5596H44.9082V70.4502ZM51.1777 70.4502H51.9834V77.5596H51.0459V74.7861L51.1777 70.4502ZM56.6172 76.6562V73.9365C56.6172 73.7282 56.5749 73.5475 56.4902 73.3945C56.4089 73.2383 56.2852 73.1178 56.1191 73.0332C55.9531 72.9486 55.748 72.9062 55.5039 72.9062C55.276 72.9062 55.0758 72.9453 54.9033 73.0234C54.734 73.1016 54.6006 73.2041 54.5029 73.3311C54.4085 73.458 54.3613 73.5947 54.3613 73.7412H53.458C53.458 73.5524 53.5068 73.3652 53.6045 73.1797C53.7021 72.9941 53.8421 72.8265 54.0244 72.6768C54.21 72.5238 54.4313 72.4033 54.6885 72.3154C54.9489 72.2243 55.2386 72.1787 55.5576 72.1787C55.9417 72.1787 56.2803 72.2438 56.5732 72.374C56.8695 72.5042 57.1006 72.7012 57.2666 72.9648C57.4359 73.2253 57.5205 73.5524 57.5205 73.9463V76.4072C57.5205 76.583 57.5352 76.7702 57.5645 76.9688C57.597 77.1673 57.6442 77.3382 57.7061 77.4814V77.5596H56.7637C56.7181 77.4554 56.6823 77.3171 56.6562 77.1445C56.6302 76.9688 56.6172 76.806 56.6172 76.6562ZM56.7734 74.3564L56.7832 74.9912H55.8701C55.613 74.9912 55.3835 75.0124 55.1816 75.0547C54.9798 75.0938 54.8105 75.154 54.6738 75.2354C54.5371 75.3167 54.4329 75.4193 54.3613 75.543C54.2897 75.6634 54.2539 75.805 54.2539 75.9678C54.2539 76.1338 54.2913 76.2852 54.3662 76.4219C54.4411 76.5586 54.5534 76.6676 54.7031 76.749C54.8561 76.8271 55.0433 76.8662 55.2646 76.8662C55.5413 76.8662 55.7855 76.8076 55.9971 76.6904C56.2087 76.5732 56.3763 76.43 56.5 76.2607C56.627 76.0915 56.6953 75.9271 56.7051 75.7676L57.0908 76.2021C57.068 76.3389 57.0062 76.4902 56.9053 76.6562C56.8044 76.8223 56.6693 76.9818 56.5 77.1348C56.334 77.2845 56.1354 77.4098 55.9043 77.5107C55.6764 77.6084 55.4193 77.6572 55.1328 77.6572C54.7747 77.6572 54.4606 77.5872 54.1904 77.4473C53.9235 77.3073 53.7152 77.1201 53.5654 76.8857C53.4189 76.6481 53.3457 76.3828 53.3457 76.0898C53.3457 75.8066 53.401 75.5576 53.5117 75.3428C53.6224 75.1247 53.7819 74.944 53.9902 74.8008C54.1986 74.6543 54.4492 74.5436 54.7422 74.4688C55.0352 74.3939 55.3623 74.3564 55.7236 74.3564H56.7734ZM59.8447 73.4043V77.5596H58.9414V72.2764H59.7959L59.8447 73.4043ZM59.6299 74.7178L59.2539 74.7031C59.2572 74.3418 59.3109 74.0081 59.415 73.7021C59.5192 73.3929 59.6657 73.1243 59.8545 72.8965C60.0433 72.6686 60.2679 72.4928 60.5283 72.3691C60.792 72.2422 61.0833 72.1787 61.4023 72.1787C61.6628 72.1787 61.8971 72.2145 62.1055 72.2861C62.3138 72.3545 62.4912 72.4652 62.6377 72.6182C62.7874 72.7712 62.9014 72.9697 62.9795 73.2139C63.0576 73.4548 63.0967 73.7493 63.0967 74.0977V77.5596H62.1885V74.0879C62.1885 73.8112 62.1478 73.5898 62.0664 73.4238C61.985 73.2546 61.8662 73.1325 61.71 73.0576C61.5537 72.9795 61.3617 72.9404 61.1338 72.9404C60.9092 72.9404 60.7041 72.9876 60.5186 73.082C60.3363 73.1764 60.1784 73.3066 60.0449 73.4727C59.9147 73.6387 59.8122 73.8291 59.7373 74.0439C59.6657 74.2555 59.6299 74.4801 59.6299 74.7178ZM67.584 76.6562V73.9365C67.584 73.7282 67.5417 73.5475 67.457 73.3945C67.3757 73.2383 67.252 73.1178 67.0859 73.0332C66.9199 72.9486 66.7148 72.9062 66.4707 72.9062C66.2428 72.9062 66.0426 72.9453 65.8701 73.0234C65.7008 73.1016 65.5674 73.2041 65.4697 73.3311C65.3753 73.458 65.3281 73.5947 65.3281 73.7412H64.4248C64.4248 73.5524 64.4736 73.3652 64.5713 73.1797C64.6689 72.9941 64.8089 72.8265 64.9912 72.6768C65.1768 72.5238 65.3981 72.4033 65.6553 72.3154C65.9157 72.2243 66.2054 72.1787 66.5244 72.1787C66.9085 72.1787 67.2471 72.2438 67.54 72.374C67.8363 72.5042 68.0674 72.7012 68.2334 72.9648C68.4027 73.2253 68.4873 73.5524 68.4873 73.9463V76.4072C68.4873 76.583 68.502 76.7702 68.5312 76.9688C68.5638 77.1673 68.611 77.3382 68.6729 77.4814V77.5596H67.7305C67.6849 77.4554 67.6491 77.3171 67.623 77.1445C67.597 76.9688 67.584 76.806 67.584 76.6562ZM67.7402 74.3564L67.75 74.9912H66.8369C66.5798 74.9912 66.3503 75.0124 66.1484 75.0547C65.9466 75.0938 65.7773 75.154 65.6406 75.2354C65.5039 75.3167 65.3997 75.4193 65.3281 75.543C65.2565 75.6634 65.2207 75.805 65.2207 75.9678C65.2207 76.1338 65.2581 76.2852 65.333 76.4219C65.4079 76.5586 65.5202 76.6676 65.6699 76.749C65.8229 76.8271 66.0101 76.8662 66.2314 76.8662C66.5081 76.8662 66.7523 76.8076 66.9639 76.6904C67.1755 76.5732 67.3431 76.43 67.4668 76.2607C67.5938 76.0915 67.6621 75.9271 67.6719 75.7676L68.0576 76.2021C68.0348 76.3389 67.973 76.4902 67.8721 76.6562C67.7712 76.8223 67.6361 76.9818 67.4668 77.1348C67.3008 77.2845 67.1022 77.4098 66.8711 77.5107C66.6432 77.6084 66.3861 77.6572 66.0996 77.6572C65.7415 77.6572 65.4274 77.5872 65.1572 77.4473C64.8903 77.3073 64.682 77.1201 64.5322 76.8857C64.3857 76.6481 64.3125 76.3828 64.3125 76.0898C64.3125 75.8066 64.3678 75.5576 64.4785 75.3428C64.5892 75.1247 64.7487 74.944 64.957 74.8008C65.1654 74.6543 65.416 74.5436 65.709 74.4688C66.002 74.3939 66.3291 74.3564 66.6904 74.3564H67.7402ZM73.3311 72.2764H74.1514V77.4473C74.1514 77.9128 74.057 78.3099 73.8682 78.6387C73.6794 78.9674 73.4157 79.2165 73.0771 79.3857C72.7419 79.5583 72.3545 79.6445 71.915 79.6445C71.7327 79.6445 71.5179 79.6152 71.2705 79.5566C71.0264 79.5013 70.7855 79.4053 70.5479 79.2686C70.3135 79.1351 70.1165 78.9544 69.957 78.7266L70.4307 78.1895C70.652 78.4564 70.8831 78.6419 71.124 78.7461C71.3682 78.8503 71.609 78.9023 71.8467 78.9023C72.1331 78.9023 72.3805 78.8486 72.5889 78.7412C72.7972 78.6338 72.9583 78.4743 73.0723 78.2627C73.1895 78.0544 73.248 77.7972 73.248 77.4912V73.4385L73.3311 72.2764ZM69.6934 74.9766V74.874C69.6934 74.4704 69.7406 74.1042 69.835 73.7754C69.9326 73.4434 70.071 73.1585 70.25 72.9209C70.4323 72.6833 70.652 72.501 70.9092 72.374C71.1663 72.2438 71.4561 72.1787 71.7783 72.1787C72.1104 72.1787 72.4001 72.2373 72.6475 72.3545C72.8981 72.4684 73.1097 72.6361 73.2822 72.8574C73.458 73.0755 73.5964 73.3392 73.6973 73.6484C73.7982 73.9577 73.8682 74.3076 73.9072 74.6982V75.1475C73.8714 75.5348 73.8014 75.8831 73.6973 76.1924C73.5964 76.5016 73.458 76.7653 73.2822 76.9834C73.1097 77.2015 72.8981 77.3691 72.6475 77.4863C72.3968 77.6003 72.1038 77.6572 71.7686 77.6572C71.4528 77.6572 71.1663 77.5905 70.9092 77.457C70.6553 77.3236 70.4372 77.1364 70.2549 76.8955C70.0726 76.6546 69.9326 76.3714 69.835 76.0459C69.7406 75.7171 69.6934 75.3607 69.6934 74.9766ZM70.5967 74.874V74.9766C70.5967 75.2402 70.6227 75.4876 70.6748 75.7188C70.7301 75.9499 70.8132 76.1533 70.9238 76.3291C71.0378 76.5049 71.1826 76.6432 71.3584 76.7441C71.5342 76.8418 71.7441 76.8906 71.9883 76.8906C72.2878 76.8906 72.5352 76.8271 72.7305 76.7002C72.9258 76.5732 73.0804 76.4056 73.1943 76.1973C73.3115 75.9889 73.4027 75.7627 73.4678 75.5186V74.3418C73.432 74.1628 73.3766 73.9902 73.3018 73.8242C73.2301 73.6549 73.1357 73.5052 73.0186 73.375C72.9046 73.2415 72.763 73.1357 72.5938 73.0576C72.4245 72.9795 72.2259 72.9404 71.998 72.9404C71.7507 72.9404 71.5374 72.9925 71.3584 73.0967C71.1826 73.1976 71.0378 73.3376 70.9238 73.5166C70.8132 73.6924 70.7301 73.8975 70.6748 74.1318C70.6227 74.363 70.5967 74.6104 70.5967 74.874ZM77.7158 77.6572C77.348 77.6572 77.0143 77.5954 76.7148 77.4717C76.4186 77.3447 76.1631 77.1673 75.9482 76.9395C75.7367 76.7116 75.5739 76.4414 75.46 76.1289C75.346 75.8164 75.2891 75.4746 75.2891 75.1035V74.8984C75.2891 74.4688 75.3525 74.0863 75.4795 73.751C75.6064 73.4124 75.779 73.126 75.9971 72.8916C76.2152 72.6572 76.4626 72.4798 76.7393 72.3594C77.016 72.2389 77.3024 72.1787 77.5986 72.1787C77.9762 72.1787 78.3018 72.2438 78.5752 72.374C78.8519 72.5042 79.0781 72.6865 79.2539 72.9209C79.4297 73.152 79.5599 73.4255 79.6445 73.7412C79.7292 74.0537 79.7715 74.3955 79.7715 74.7666V75.1719H75.8262V74.4346H78.8682V74.3662C78.8551 74.1318 78.8063 73.904 78.7217 73.6826C78.6403 73.4613 78.5101 73.279 78.3311 73.1357C78.152 72.9925 77.9079 72.9209 77.5986 72.9209C77.3936 72.9209 77.2048 72.9648 77.0322 73.0527C76.8597 73.1374 76.7116 73.2643 76.5879 73.4336C76.4642 73.6029 76.3682 73.8096 76.2998 74.0537C76.2314 74.2979 76.1973 74.5794 76.1973 74.8984V75.1035C76.1973 75.3542 76.2314 75.5902 76.2998 75.8115C76.3714 76.0296 76.474 76.2217 76.6074 76.3877C76.7441 76.5537 76.9085 76.6839 77.1006 76.7783C77.2959 76.8727 77.5173 76.9199 77.7646 76.9199C78.0837 76.9199 78.3538 76.8548 78.5752 76.7246C78.7965 76.5944 78.9902 76.4202 79.1562 76.2021L79.7031 76.6367C79.5892 76.8092 79.4443 76.9736 79.2686 77.1299C79.0928 77.2861 78.8763 77.4131 78.6191 77.5107C78.3652 77.6084 78.0641 77.6572 77.7158 77.6572ZM81.7246 73.3262V77.5596H80.8164V72.2764H81.6758L81.7246 73.3262ZM81.5391 74.7178L81.1191 74.7031C81.1224 74.3418 81.1696 74.0081 81.2607 73.7021C81.3519 73.3929 81.487 73.1243 81.666 72.8965C81.8451 72.6686 82.068 72.4928 82.335 72.3691C82.6019 72.2422 82.9111 72.1787 83.2627 72.1787C83.5101 72.1787 83.738 72.2145 83.9463 72.2861C84.1546 72.3545 84.3353 72.4635 84.4883 72.6133C84.6413 72.763 84.7601 72.9551 84.8447 73.1895C84.9294 73.4238 84.9717 73.707 84.9717 74.0391V77.5596H84.0684V74.083C84.0684 73.8063 84.0212 73.585 83.9268 73.4189C83.8356 73.2529 83.7054 73.1325 83.5361 73.0576C83.3669 72.9795 83.1683 72.9404 82.9404 72.9404C82.6735 72.9404 82.4505 72.9876 82.2715 73.082C82.0924 73.1764 81.9492 73.3066 81.8418 73.4727C81.7344 73.6387 81.6562 73.8291 81.6074 74.0439C81.5618 74.2555 81.5391 74.4801 81.5391 74.7178ZM84.9619 74.2197L84.3564 74.4053C84.3597 74.1156 84.4069 73.8372 84.498 73.5703C84.5924 73.3034 84.7275 73.0658 84.9033 72.8574C85.0824 72.6491 85.3021 72.4847 85.5625 72.3643C85.8229 72.2406 86.1208 72.1787 86.4561 72.1787C86.7393 72.1787 86.9899 72.2161 87.208 72.291C87.4294 72.3659 87.6149 72.4814 87.7646 72.6377C87.9176 72.7907 88.0332 72.9876 88.1113 73.2285C88.1895 73.4694 88.2285 73.7559 88.2285 74.0879V77.5596H87.3203V74.0781C87.3203 73.7819 87.2731 73.5524 87.1787 73.3896C87.0876 73.2236 86.9574 73.1081 86.7881 73.043C86.6221 72.9746 86.4235 72.9404 86.1924 72.9404C85.9938 72.9404 85.818 72.9746 85.665 73.043C85.512 73.1113 85.3835 73.2057 85.2793 73.3262C85.1751 73.4434 85.0954 73.5785 85.04 73.7314C84.988 73.8844 84.9619 74.0472 84.9619 74.2197ZM91.7881 77.6572C91.4202 77.6572 91.0866 77.5954 90.7871 77.4717C90.4909 77.3447 90.2354 77.1673 90.0205 76.9395C89.8089 76.7116 89.6462 76.4414 89.5322 76.1289C89.4183 75.8164 89.3613 75.4746 89.3613 75.1035V74.8984C89.3613 74.4688 89.4248 74.0863 89.5518 73.751C89.6787 73.4124 89.8512 73.126 90.0693 72.8916C90.2874 72.6572 90.5348 72.4798 90.8115 72.3594C91.0882 72.2389 91.3747 72.1787 91.6709 72.1787C92.0485 72.1787 92.374 72.2438 92.6475 72.374C92.9242 72.5042 93.1504 72.6865 93.3262 72.9209C93.502 73.152 93.6322 73.4255 93.7168 73.7412C93.8014 74.0537 93.8438 74.3955 93.8438 74.7666V75.1719H89.8984V74.4346H92.9404V74.3662C92.9274 74.1318 92.8786 73.904 92.7939 73.6826C92.7126 73.4613 92.5824 73.279 92.4033 73.1357C92.2243 72.9925 91.9801 72.9209 91.6709 72.9209C91.4658 72.9209 91.277 72.9648 91.1045 73.0527C90.932 73.1374 90.7839 73.2643 90.6602 73.4336C90.5365 73.6029 90.4404 73.8096 90.3721 74.0537C90.3037 74.2979 90.2695 74.5794 90.2695 74.8984V75.1035C90.2695 75.3542 90.3037 75.5902 90.3721 75.8115C90.4437 76.0296 90.5462 76.2217 90.6797 76.3877C90.8164 76.5537 90.9808 76.6839 91.1729 76.7783C91.3682 76.8727 91.5895 76.9199 91.8369 76.9199C92.1559 76.9199 92.4261 76.8548 92.6475 76.7246C92.8688 76.5944 93.0625 76.4202 93.2285 76.2021L93.7754 76.6367C93.6615 76.8092 93.5166 76.9736 93.3408 77.1299C93.165 77.2861 92.9486 77.4131 92.6914 77.5107C92.4375 77.6084 92.1364 77.6572 91.7881 77.6572ZM95.8018 73.4043V77.5596H94.8984V72.2764H95.7529L95.8018 73.4043ZM95.5869 74.7178L95.2109 74.7031C95.2142 74.3418 95.2679 74.0081 95.3721 73.7021C95.4762 73.3929 95.6227 73.1243 95.8115 72.8965C96.0003 72.6686 96.2249 72.4928 96.4854 72.3691C96.749 72.2422 97.0404 72.1787 97.3594 72.1787C97.6198 72.1787 97.8542 72.2145 98.0625 72.2861C98.2708 72.3545 98.4482 72.4652 98.5947 72.6182C98.7445 72.7712 98.8584 72.9697 98.9365 73.2139C99.0146 73.4548 99.0537 73.7493 99.0537 74.0977V77.5596H98.1455V74.0879C98.1455 73.8112 98.1048 73.5898 98.0234 73.4238C97.9421 73.2546 97.8232 73.1325 97.667 73.0576C97.5107 72.9795 97.3187 72.9404 97.0908 72.9404C96.8662 72.9404 96.6611 72.9876 96.4756 73.082C96.2933 73.1764 96.1354 73.3066 96.002 73.4727C95.8717 73.6387 95.7692 73.8291 95.6943 74.0439C95.6227 74.2555 95.5869 74.4801 95.5869 74.7178ZM102.638 72.2764V72.9697H99.7812V72.2764H102.638ZM100.748 70.9922H101.651V76.251C101.651 76.43 101.679 76.5651 101.734 76.6562C101.79 76.7474 101.861 76.8076 101.949 76.8369C102.037 76.8662 102.132 76.8809 102.232 76.8809C102.307 76.8809 102.385 76.8743 102.467 76.8613C102.551 76.8451 102.615 76.832 102.657 76.8223L102.662 77.5596C102.59 77.5824 102.496 77.6035 102.379 77.623C102.265 77.6458 102.127 77.6572 101.964 77.6572C101.743 77.6572 101.539 77.6133 101.354 77.5254C101.168 77.4375 101.02 77.291 100.909 77.0859C100.802 76.8776 100.748 76.5977 100.748 76.2461V70.9922ZM110.104 75.7627C110.104 75.5967 110.077 75.4502 110.025 75.3232C109.977 75.193 109.889 75.0758 109.762 74.9717C109.638 74.8675 109.465 74.7682 109.244 74.6738C109.026 74.5794 108.749 74.4834 108.414 74.3857C108.062 74.2816 107.745 74.166 107.462 74.0391C107.179 73.9089 106.936 73.7607 106.734 73.5947C106.533 73.4287 106.378 73.2383 106.271 73.0234C106.163 72.8086 106.109 72.5628 106.109 72.2861C106.109 72.0094 106.166 71.7539 106.28 71.5195C106.394 71.2852 106.557 71.0817 106.769 70.9092C106.983 70.7334 107.239 70.5967 107.535 70.499C107.831 70.4014 108.162 70.3525 108.526 70.3525C109.06 70.3525 109.513 70.4551 109.884 70.6602C110.258 70.862 110.543 71.1273 110.738 71.4561C110.934 71.7816 111.031 72.1299 111.031 72.501H110.094C110.094 72.234 110.037 71.998 109.923 71.793C109.809 71.5846 109.636 71.4219 109.405 71.3047C109.174 71.1842 108.881 71.124 108.526 71.124C108.191 71.124 107.914 71.1745 107.696 71.2754C107.478 71.3763 107.315 71.513 107.208 71.6855C107.104 71.8581 107.052 72.055 107.052 72.2764C107.052 72.4261 107.083 72.5628 107.145 72.6865C107.21 72.807 107.309 72.9193 107.442 73.0234C107.579 73.1276 107.752 73.2236 107.96 73.3115C108.172 73.3994 108.424 73.484 108.717 73.5654C109.12 73.6794 109.469 73.8063 109.762 73.9463C110.055 74.0863 110.296 74.2441 110.484 74.4199C110.676 74.5924 110.818 74.7894 110.909 75.0107C111.004 75.2288 111.051 75.4762 111.051 75.7529C111.051 76.0426 110.992 76.3047 110.875 76.5391C110.758 76.7734 110.59 76.9736 110.372 77.1396C110.154 77.3057 109.892 77.4342 109.586 77.5254C109.283 77.6133 108.945 77.6572 108.57 77.6572C108.242 77.6572 107.918 77.6117 107.599 77.5205C107.283 77.4294 106.995 77.2926 106.734 77.1104C106.477 76.9281 106.271 76.7035 106.114 76.4365C105.961 76.1663 105.885 75.8538 105.885 75.499H106.822C106.822 75.7432 106.869 75.9531 106.964 76.1289C107.058 76.3014 107.187 76.4447 107.35 76.5586C107.516 76.6725 107.703 76.7572 107.911 76.8125C108.123 76.8646 108.342 76.8906 108.57 76.8906C108.899 76.8906 109.177 76.8451 109.405 76.7539C109.633 76.6628 109.806 76.5326 109.923 76.3633C110.043 76.194 110.104 75.9938 110.104 75.7627ZM113.6 77.0127L115.069 72.2764H116.036L113.917 78.375C113.868 78.5052 113.803 78.6452 113.722 78.7949C113.644 78.9479 113.543 79.0928 113.419 79.2295C113.295 79.3662 113.146 79.4769 112.97 79.5615C112.797 79.6494 112.59 79.6934 112.35 79.6934C112.278 79.6934 112.187 79.6836 112.076 79.6641C111.965 79.6445 111.887 79.6283 111.842 79.6152L111.837 78.8828C111.863 78.8861 111.904 78.8893 111.959 78.8926C112.018 78.8991 112.058 78.9023 112.081 78.9023C112.286 78.9023 112.46 78.8747 112.604 78.8193C112.747 78.7673 112.867 78.6777 112.965 78.5508C113.066 78.4271 113.152 78.2562 113.224 78.0381L113.6 77.0127ZM112.521 72.2764L113.893 76.3779L114.127 77.3301L113.478 77.6621L111.534 72.2764H112.521ZM119.928 76.1582C119.928 76.028 119.898 75.9076 119.84 75.7969C119.785 75.6829 119.669 75.5804 119.493 75.4893C119.321 75.3949 119.06 75.3135 118.712 75.2451C118.419 75.1833 118.154 75.11 117.916 75.0254C117.682 74.9408 117.481 74.8382 117.315 74.7178C117.153 74.5973 117.027 74.4557 116.939 74.293C116.852 74.1302 116.808 73.9398 116.808 73.7217C116.808 73.5133 116.853 73.3164 116.944 73.1309C117.039 72.9453 117.171 72.7809 117.34 72.6377C117.512 72.4945 117.719 72.3822 117.96 72.3008C118.201 72.2194 118.469 72.1787 118.766 72.1787C119.189 72.1787 119.55 72.2536 119.85 72.4033C120.149 72.5531 120.379 72.7533 120.538 73.0039C120.698 73.2513 120.777 73.5264 120.777 73.8291H119.874C119.874 73.6826 119.83 73.541 119.742 73.4043C119.658 73.2643 119.532 73.1488 119.366 73.0576C119.203 72.9665 119.003 72.9209 118.766 72.9209C118.515 72.9209 118.312 72.96 118.155 73.0381C118.002 73.113 117.89 73.209 117.818 73.3262C117.75 73.4434 117.716 73.5671 117.716 73.6973C117.716 73.7949 117.732 73.8828 117.765 73.9609C117.8 74.0358 117.862 74.1058 117.95 74.1709C118.038 74.2327 118.162 74.2913 118.321 74.3467C118.481 74.402 118.684 74.4574 118.932 74.5127C119.365 74.6104 119.721 74.7275 120.001 74.8643C120.281 75.001 120.489 75.1686 120.626 75.3672C120.763 75.5658 120.831 75.8066 120.831 76.0898C120.831 76.321 120.782 76.5326 120.685 76.7246C120.59 76.9167 120.452 77.0827 120.27 77.2227C120.09 77.3594 119.876 77.4668 119.625 77.5449C119.378 77.6198 119.099 77.6572 118.79 77.6572C118.325 77.6572 117.931 77.5742 117.608 77.4082C117.286 77.2422 117.042 77.0273 116.876 76.7637C116.71 76.5 116.627 76.2217 116.627 75.9287H117.535C117.548 76.1761 117.62 76.373 117.75 76.5195C117.88 76.6628 118.04 76.7653 118.229 76.8271C118.417 76.8857 118.604 76.915 118.79 76.915C119.037 76.915 119.244 76.8825 119.41 76.8174C119.579 76.7523 119.708 76.6628 119.796 76.5488C119.884 76.4349 119.928 76.3047 119.928 76.1582ZM124.229 72.2764V72.9697H121.373V72.2764H124.229ZM122.34 70.9922H123.243V76.251C123.243 76.43 123.271 76.5651 123.326 76.6562C123.382 76.7474 123.453 76.8076 123.541 76.8369C123.629 76.8662 123.723 76.8809 123.824 76.8809C123.899 76.8809 123.977 76.8743 124.059 76.8613C124.143 76.8451 124.207 76.832 124.249 76.8223L124.254 77.5596C124.182 77.5824 124.088 77.6035 123.971 77.623C123.857 77.6458 123.718 77.6572 123.556 77.6572C123.334 77.6572 123.131 77.6133 122.945 77.5254C122.76 77.4375 122.612 77.291 122.501 77.0859C122.394 76.8776 122.34 76.5977 122.34 76.2461V70.9922ZM127.481 77.6572C127.114 77.6572 126.78 77.5954 126.48 77.4717C126.184 77.3447 125.929 77.1673 125.714 76.9395C125.502 76.7116 125.34 76.4414 125.226 76.1289C125.112 75.8164 125.055 75.4746 125.055 75.1035V74.8984C125.055 74.4688 125.118 74.0863 125.245 73.751C125.372 73.4124 125.545 73.126 125.763 72.8916C125.981 72.6572 126.228 72.4798 126.505 72.3594C126.782 72.2389 127.068 72.1787 127.364 72.1787C127.742 72.1787 128.067 72.2438 128.341 72.374C128.618 72.5042 128.844 72.6865 129.02 72.9209C129.195 73.152 129.326 73.4255 129.41 73.7412C129.495 74.0537 129.537 74.3955 129.537 74.7666V75.1719H125.592V74.4346H128.634V74.3662C128.621 74.1318 128.572 73.904 128.487 73.6826C128.406 73.4613 128.276 73.279 128.097 73.1357C127.918 72.9925 127.674 72.9209 127.364 72.9209C127.159 72.9209 126.97 72.9648 126.798 73.0527C126.625 73.1374 126.477 73.2643 126.354 73.4336C126.23 73.6029 126.134 73.8096 126.065 74.0537C125.997 74.2979 125.963 74.5794 125.963 74.8984V75.1035C125.963 75.3542 125.997 75.5902 126.065 75.8115C126.137 76.0296 126.24 76.2217 126.373 76.3877C126.51 76.5537 126.674 76.6839 126.866 76.7783C127.062 76.8727 127.283 76.9199 127.53 76.9199C127.849 76.9199 128.119 76.8548 128.341 76.7246C128.562 76.5944 128.756 76.4202 128.922 76.2021L129.469 76.6367C129.355 76.8092 129.21 76.9736 129.034 77.1299C128.858 77.2861 128.642 77.4131 128.385 77.5107C128.131 77.6084 127.83 77.6572 127.481 77.6572ZM131.49 73.3262V77.5596H130.582V72.2764H131.441L131.49 73.3262ZM131.305 74.7178L130.885 74.7031C130.888 74.3418 130.935 74.0081 131.026 73.7021C131.118 73.3929 131.253 73.1243 131.432 72.8965C131.611 72.6686 131.834 72.4928 132.101 72.3691C132.368 72.2422 132.677 72.1787 133.028 72.1787C133.276 72.1787 133.504 72.2145 133.712 72.2861C133.92 72.3545 134.101 72.4635 134.254 72.6133C134.407 72.763 134.526 72.9551 134.61 73.1895C134.695 73.4238 134.737 73.707 134.737 74.0391V77.5596H133.834V74.083C133.834 73.8063 133.787 73.585 133.692 73.4189C133.601 73.2529 133.471 73.1325 133.302 73.0576C133.132 72.9795 132.934 72.9404 132.706 72.9404C132.439 72.9404 132.216 72.9876 132.037 73.082C131.858 73.1764 131.715 73.3066 131.607 73.4727C131.5 73.6387 131.422 73.8291 131.373 74.0439C131.327 74.2555 131.305 74.4801 131.305 74.7178ZM134.728 74.2197L134.122 74.4053C134.125 74.1156 134.173 73.8372 134.264 73.5703C134.358 73.3034 134.493 73.0658 134.669 72.8574C134.848 72.6491 135.068 72.4847 135.328 72.3643C135.589 72.2406 135.886 72.1787 136.222 72.1787C136.505 72.1787 136.756 72.2161 136.974 72.291C137.195 72.3659 137.381 72.4814 137.53 72.6377C137.683 72.7907 137.799 72.9876 137.877 73.2285C137.955 73.4694 137.994 73.7559 137.994 74.0879V77.5596H137.086V74.0781C137.086 73.7819 137.039 73.5524 136.944 73.3896C136.853 73.2236 136.723 73.1081 136.554 73.043C136.388 72.9746 136.189 72.9404 135.958 72.9404C135.759 72.9404 135.584 72.9746 135.431 73.043C135.278 73.1113 135.149 73.2057 135.045 73.3262C134.941 73.4434 134.861 73.5785 134.806 73.7314C134.754 73.8844 134.728 74.0472 134.728 74.2197Z" fill="#324F9A"/>
</g>
<defs>
<filter id="filter0_d_657_3029" x="49.5415" y="0.662598" width="43.3516" height="29.1277" filterUnits="userSpaceOnUse" color-interpolation-filters="sRGB">
<feFlood flood-opacity="0" result="BackgroundImageFix"/>
<feColorMatrix in="SourceAlpha" type="matrix" values="0 0 0 0 0 0 0 0 0 0 0 0 0 0 0 0 0 0 127 0" result="hardAlpha"/>
<feOffset dy="4"/>
<feGaussianBlur stdDeviation="2"/>
<feComposite in2="hardAlpha" operator="out"/>
<feColorMatrix type="matrix" values="0 0 0 0 0 0 0 0 0 0 0 0 0 0 0 0 0 0 0.25 0"/>
<feBlend mode="normal" in2="BackgroundImageFix" result="effect1_dropShadow_657_3029"/>
<feBlend mode="normal" in="SourceGraphic" in2="effect1_dropShadow_657_3029" result="shape"/>
</filter>
<filter id="filter1_d_657_3029" x="17.9639" y="20.9648" width="107.17" height="44.5234" filterUnits="userSpaceOnUse" color-interpolation-filters="sRGB">
<feFlood flood-opacity="0" result="BackgroundImageFix"/>
<feColorMatrix in="SourceAlpha" type="matrix" values="0 0 0 0 0 0 0 0 0 0 0 0 0 0 0 0 0 0 127 0" result="hardAlpha"/>
<feOffset dy="4"/>
<feGaussianBlur stdDeviation="2"/>
<feComposite in2="hardAlpha" operator="out"/>
<feColorMatrix type="matrix" values="0 0 0 0 0 0 0 0 0 0 0 0 0 0 0 0 0 0 0.25 0"/>
<feBlend mode="normal" in2="BackgroundImageFix" result="effect1_dropShadow_657_3029"/>
<feBlend mode="normal" in="SourceGraphic" in2="effect1_dropShadow_657_3029" result="shape"/>
</filter>
<filter id="filter2_d_657_3029" x="0.722656" y="70.0596" width="141.271" height="17.6338" filterUnits="userSpaceOnUse" color-interpolation-filters="sRGB">
<feFlood flood-opacity="0" result="BackgroundImageFix"/>
<feColorMatrix in="SourceAlpha" type="matrix" values="0 0 0 0 0 0 0 0 0 0 0 0 0 0 0 0 0 0 127 0" result="hardAlpha"/>
<feOffset dy="4"/>
<feGaussianBlur stdDeviation="2"/>
<feComposite in2="hardAlpha" operator="out"/>
<feColorMatrix type="matrix" values="0 0 0 0 0 0 0 0 0 0 0 0 0 0 0 0 0 0 0.25 0"/>
<feBlend mode="normal" in2="BackgroundImageFix" result="effect1_dropShadow_657_3029"/>
<feBlend mode="normal" in="SourceGraphic" in2="effect1_dropShadow_657_3029" result="shape"/>
</filter>
</defs>
</svg>
